<?xml version="1.0" encoding="UTF-8"?>
<svg width="1308px" height="423px" viewBox="0 0 1308 423" version="1.1" xmlns="http://www.w3.org/2000/svg" xmlns:xlink="http://www.w3.org/1999/xlink">
    <title>Group 22</title>
    <g id="Desktop" stroke="none" stroke-width="1" fill="none" fill-rule="evenodd">
        <g id="00.00-/-Trabajadores-/-Desktop" transform="translate(-87.000000, -147.000000)">
            <g id="Group-22" transform="translate(88.000000, 148.000000)">
                <g id="Group-173">
                    <g id="Group-4" transform="translate(0.127429, 19.000000)">
                        <path d="M112.606564,223.223261 C152.706292,210.550408 179.971473,173.285555 179.971473,131.155769 L179.971473,131.154591 C179.971473,91.3200731 155.552928,55.5755858 118.491415,41.1586112 L2.7689474,1.04380914 C1.5254539,4.32125076 0.828486364,7.89899695 0.828486364,11.6957888 L0.828486364,232.643403" id="Fill-1" fill="#FFFFFF"></path>
                        <path d="M112.328378,223.688368 C152.619941,210.954889 180.015558,173.511762 180.015558,131.180428 L180.015558,131.179245 C180.015558,91.1541604 155.480195,55.2386729 118.241382,40.752728 L1.96530241,0.446018337 C0.715860078,3.73913911 0.0155582803,7.3340011 0.0155582803,11.1489567 L0.0155582803,233.153576" id="Stroke-3" stroke="#DCDCDC" stroke-linecap="round"></path>
                    </g>
                    <g id="Group-8" transform="translate(2.127429, 0.000000)">
                        <path d="M131.902077,248.772846 C186.987832,223.81412 200.083393,193.995195 200.083393,143.910959 C200.083393,96.5563274 170.974832,54.0642425 126.795972,36.9267 L39.0447789,2.88652075 C23.0529368,-3.31616321 6.05139298,5.22148302 0.418691228,20.0111434 L116.152375,60.0191009 C153.217481,74.3976764 177.638393,110.046959 177.638393,149.775379 L177.638393,149.775379 C177.638393,191.792955 150.369393,228.958554 110.266954,241.598827" id="Fill-5" fill="#FFFFFF"></path>
                        <path d="M131.78758,248.772846 C186.96584,223.807187 200.083393,193.979981 200.083393,143.881834 C200.083393,96.514049 170.925949,54.0101618 126.6729,36.8678594 L38.7743457,2.81822546 C22.7556484,-3.38618131 5.72555377,5.15383626 0.0833929825,19.9476045 L116.01143,59.9666743 C153.138778,74.3492435 177.600701,110.008428 177.600701,149.747883 L177.600701,149.747883 C177.600701,191.777128 150.285908,228.95305 110.116125,241.596835" id="Stroke-7" stroke="#DCDCDC" stroke-linecap="round"></path>
                    </g>
                    <g id="Group-12" transform="translate(1.127429, 180.000000)">
                        <path d="M0.0823034483,67.8317342 C0.0823034483,67.8317342 3.95478621,50.5751863 27.4710621,21.5613781 C50.9885103,-7.45360822 68.1198207,2.68025479 68.1198207,2.68025479 C68.1198207,2.68025479 98.8734069,16.6216795 105.6312,15.0783918 C112.388993,13.5351041 128.190786,11.0022274 136.963959,21.8688575 C142.229269,28.3918986 163.962303,44.0226932 169.063476,47.6523644 C169.524234,47.9798712 169.456234,48.678474 168.940372,48.9070219 C164.120579,51.0475973 146.292855,60.5747479 144.054717,85.1625014 C144.044166,85.2755973 143.908166,85.3274329 143.830786,85.243789 L132.735062,69.2795973" id="Fill-9" fill="#FFFFFF"></path>
                        <path d="M0.0823034483,67.8317342 C0.0823034483,67.8317342 3.95478621,50.5751863 27.4710621,21.5613781 C50.9885103,-7.45360822 68.1198207,2.68025479 68.1198207,2.68025479 C68.1198207,2.68025479 98.8734069,16.6216795 105.6312,15.0783918 C112.388993,13.5351041 128.190786,11.0022274 136.963959,21.8688575 C142.229269,28.3918986 163.962303,44.0226932 169.063476,47.6523644 C169.524234,47.9798712 169.456234,48.678474 168.940372,48.9070219 C164.120579,51.0475973 146.292855,60.5747479 144.054717,85.1625014 C144.044166,85.2755973 143.908166,85.3274329 143.830786,85.243789 L132.735062,69.2795973" id="Stroke-11" stroke="#000000" stroke-width="1.5" stroke-linecap="round"></path>
                    </g>
                    <g id="Group-16" transform="translate(146.127429, 167.000000)">
                        <path d="M1.07654868,90.2598 C1.07654868,90.2598 15.4699566,102.547869 29.5846539,101.626352 C43.6981803,100.704834 49.5276803,87.1880759 52.9026539,78.2800759 C55.9637855,70.2021448 67.2738118,34.9746276 69.3547724,28.4806276 C69.5585355,27.8428345 70.0129039,27.3269724 70.6218513,27.0479379 C72.6817329,26.1029724 81.8264829,20.8329724 85.2951408,16.1655931 C90.0261934,9.80173103 87.9393776,0.991041379 87.9393776,0.991041379" id="Fill-13" fill="#FFFFFF"></path>
                        <path d="M1.07654868,90.2598 C1.07654868,90.2598 15.4699566,102.547869 29.5846539,101.626352 C43.6981803,100.704834 49.5276803,87.1880759 52.9026539,78.2800759 C55.9637855,70.2021448 67.2738118,34.9746276 69.3547724,28.4806276 C69.5585355,27.8428345 70.0129039,27.3269724 70.6218513,27.0479379 C72.6817329,26.1029724 81.8264829,20.8329724 85.2951408,16.1655931 C90.0261934,9.80173103 87.9393776,0.991041379 87.9393776,0.991041379" id="Stroke-15" stroke="#000000" stroke-width="1.5" stroke-linecap="round"></path>
                    </g>
                    <path d="M128.485392,135.153561 C128.485392,135.153561 135.438302,121.287902 126.785609,112.827419 C126.785609,112.827419 120.164908,95.9654374 98.5689792,98.0510666 C98.5689792,98.0510666 101.294736,87.4459724 90.7708733,88.3861571 C90.7708733,88.3861571 87.9641186,73.5803131 70.6587329,78.0453055 C70.6587329,78.0453055 54.9897403,63.0047103 44.4658777,84.8613494 C44.4658777,84.8613494 33.9408412,81.335362 30.1996755,90.2665264 C26.457336,99.1965112 33.2400329,105.07237 39.3207478,107.186311 C39.3207478,107.186311 32.0708453,118.703278 46.3370475,121.287902 C46.3370475,121.287902 47.2714585,134.684058 59.6664909,131.392822 C59.6664909,131.392822 56.8597362,160.769759 85.157364,165 L128.485392,135.153561 Z" id="Fill-17" fill="#000000"></path>
                    <path d="M128.485392,135.153561 C128.485392,135.153561 135.438302,121.287902 126.785609,112.827419 C126.785609,112.827419 120.164908,95.9654374 98.5689792,98.0510666 C98.5689792,98.0510666 101.294736,87.4459724 90.7708733,88.3861571 C90.7708733,88.3861571 87.9641186,73.5803131 70.6587329,78.0453055 C70.6587329,78.0453055 54.9897403,63.0047103 44.4658777,84.8613494 C44.4658777,84.8613494 33.9408412,81.335362 30.1996755,90.2665264 C26.457336,99.1965112 33.2400329,105.07237 39.3207478,107.186311 C39.3207478,107.186311 32.0708453,118.703278 46.3370475,121.287902 C46.3370475,121.287902 47.2714585,134.684058 59.6664909,131.392822 C59.6664909,131.392822 56.8597362,160.769759 85.157364,165 L128.485392,135.153561 Z" id="Stroke-19" stroke="#000000" stroke-width="1.5" stroke-linecap="round"></path>
                    <path d="M127.565127,126.953396 L127.565127,140.141883 C127.565127,144.870455 132.055082,179.523021 115.659856,182.730935 C109.255397,183.984562 104.177542,182.410734 101.967321,181.505665 C101.337007,181.248087 100.636004,181.642725 100.507585,182.312666 L97.5221362,197.98832 C96.8717938,201.404187 93.538789,203.606601 90.1551235,202.851589 C84.4858343,201.587328 76.0737968,197.113971 69.2546268,182.694307 L75.954803,157.809634 C75.4576209,154.574544 68.0764703,149.460786 69.2546268,140.639317 C70.5965471,130.599667 80.1726033,133.423577 80.1726033,136.160052 C80.1726033,138.568055 79.0203662,145.59711 83.1344888,149.116954 C83.8555206,149.734906 84.972413,149.1973 84.9111488,148.247332 C84.5836213,143.07804 85.198619,130.058516 99.5261804,128.944312 C109.434477,128.17394 123.59474,119.736475 123.843331,117 C123.843331,117 127.565127,122.722258 127.565127,126.953396" id="Fill-21" fill="#FFFFFF"></path>
                    <path d="M127.565127,126.953396 L127.565127,140.141883 C127.565127,144.870455 132.055082,179.523021 115.659856,182.730935 C109.255397,183.984562 104.177542,182.410734 101.967321,181.505665 C101.337007,181.248087 100.636004,181.642725 100.507585,182.312666 L97.5221362,197.98832 C96.8717938,201.404187 93.538789,203.606601 90.1551235,202.851589 C84.4858343,201.587328 76.0737968,197.113971 69.2546268,182.694307 L75.954803,157.809634 C75.4576209,154.574544 68.0764703,149.460786 69.2546268,140.639317 C70.5965471,130.599667 80.1726033,133.423577 80.1726033,136.160052 C80.1726033,138.568055 79.0203662,145.59711 83.1344888,149.116954 C83.8555206,149.734906 84.972413,149.1973 84.9111488,148.247332 C84.5836213,143.07804 85.198619,130.058516 99.5261804,128.944312 C109.434477,128.17394 123.59474,119.736475 123.843331,117 C123.843331,117 127.565127,122.722258 127.565127,126.953396 Z" id="Stroke-23" stroke="#000000" stroke-width="1.5" stroke-linecap="round"></path>
                    <g id="Group-28" transform="translate(81.127429, 160.000000)">
                        <path d="M0.0843461538,0.23784 C0.0843461538,0.23784 -0.438346154,5.51784 2.17280769,8.36904 C4.78396154,11.22024 14.0528077,17.87304 14.0528077,17.87304" id="Fill-25" fill="#FFFFFF"></path>
                        <path d="M0.0843461538,0.23784 C0.0843461538,0.23784 -0.438346154,5.51784 2.17280769,8.36904 C4.78396154,11.22024 14.0528077,17.87304 14.0528077,17.87304" id="Stroke-27" stroke="#000000" stroke-width="1.5" stroke-linecap="round"></path>
                    </g>
                    <g id="Group-32" transform="translate(120.127429, 143.000000)">
                        <path d="M0.341625,1.079675 C0.341625,1.079675 1.907875,7.6714875 3.285375,10.555925 C6.375375,17.03255 0.341625,18.8909875 0.341625,18.8909875" id="Fill-29" fill="#FFFFFF"></path>
                        <path d="M0.341625,1.079675 C0.341625,1.079675 1.907875,7.6714875 3.285375,10.555925 C6.375375,17.03255 0.341625,18.8909875 0.341625,18.8909875" id="Stroke-31" stroke="#000000" stroke-width="1.5" stroke-linecap="round"></path>
                    </g>
                    <path d="M154.127429,262.760752 C154.127429,262.760752 148.217877,270.362372 145.127429,265.207157 L146.413315,259 L154.127429,262.760752 Z" id="Fill-33" fill="#000000"></path>
                    <path d="M154.127429,262.760752 C154.127429,262.760752 148.217877,270.362372 145.127429,265.207157 L146.413315,259 L154.127429,262.760752 Z" id="Stroke-35" stroke="#000000" stroke-width="2" stroke-linecap="round"></path>
                    <g id="Group-40" transform="translate(126.127429, 222.000000)">
                        <path d="M8.1171,26.7729652 C8.770725,12.8116174 0.4446,0.0441391304 0.4446,0.0441391304" id="Fill-37" fill="#FFFFFF"></path>
                        <path d="M8.1171,26.7729652 C8.770725,12.8116174 0.4446,0.0441391304 0.4446,0.0441391304" id="Stroke-39" stroke="#000000" stroke-width="1.5" stroke-linecap="round"></path>
                    </g>
                    <g id="Group-44" transform="translate(35.127429, 242.000000)">
                        <path d="M18.3661125,0.3507875 C18.3661125,0.3507875 6.4828,20.9942875 0.8006125,37.3912875" id="Fill-41" fill="#FFFFFF"></path>
                        <path d="M18.3661125,0.3507875 C18.3661125,0.3507875 6.4828,20.9942875 0.8006125,37.3912875" id="Stroke-43" stroke="#000000" stroke-width="1.5" stroke-linecap="round"></path>
                    </g>
                    <g id="Group-48" transform="translate(14.127429, 220.000000)">
                        <path d="M0.178733333,0.763512 C0.178733333,0.763512 28.8729,7.718872 34.9139,28.514192" id="Fill-45" fill="#FFFFFF"></path>
                        <path d="M0.178733333,0.763512 C0.178733333,0.763512 28.8729,7.718872 34.9139,28.514192" id="Stroke-47" stroke="#000000" stroke-width="1.5" stroke-linecap="round"></path>
                    </g>
                    <path d="M134.127429,249.163431 L39.4748675,279.535793 C20.024452,285.777431 0.127428733,271.283457 0.127428733,250.875113 L0.127428733,207" id="Stroke-49" stroke="#DCDCDC" stroke-linecap="round"></path>
                    <g id="Group-54" transform="translate(110.127429, 41.000000)">
                        <line x1="30.4164846" y1="0.906742857" x2="0.278523077" y2="15.7981714" id="Fill-51" fill="#FFFFFF"></line>
                        <line x1="30.4164846" y1="0.906742857" x2="0.278523077" y2="15.7981714" id="Stroke-53" stroke="#DCDCDC" stroke-linecap="round"></line>
                    </g>
                    <g id="Group-58" transform="translate(125.127429, 49.000000)">
                        <line x1="27.9958" y1="0.108733333" x2="0.700466667" y2="13.5382333" id="Fill-55" fill="#FFFFFF"></line>
                        <line x1="27.9958" y1="0.108733333" x2="0.700466667" y2="13.5382333" id="Stroke-57" stroke="#DCDCDC" stroke-linecap="round"></line>
                    </g>
                    <line x1="200.127429" y1="122" x2="177.127429" y2="126" id="Stroke-59" stroke="#DCDCDC" stroke-linecap="round"></line>
                    <line x1="198.127429" y1="174" x2="177.127429" y2="172" id="Stroke-61" stroke="#DCDCDC" stroke-linecap="round"></line>
                    <path d="M204.994746,180.098418 L202.399084,185.477325 C201.742209,186.839493 202.317712,188.47835 203.682174,189.127508 L218.330385,192.884111 C219.992033,193.309789 221.726799,192.535292 222.524012,191.012313 L239.701844,158.168939 C240.815113,156.040552 239.647596,153.430913 237.324355,152.84679 L223.077109,149.268735 C221.631275,148.608935 219.923633,149.203701 219.197178,150.619078 L210.93729,168.013911" id="Stroke-63" stroke="#52BF3B" stroke-width="2" stroke-linecap="round"></path>
                    <g id="Group-68" transform="translate(224.127429, 154.000000)">
                        <line x1="0.67425" y1="0.0688" x2="4.65925" y2="0.9998" id="Fill-65" fill="#FFFFFF"></line>
                        <line x1="0.67425" y1="0.0688" x2="4.65925" y2="0.9998" id="Stroke-67" stroke="#52BF3B" stroke-width="2" stroke-linecap="round"></line>
                    </g>
                    <g id="Group-72" transform="translate(216.127429, 153.000000)">
                        <path d="M20.9397158,0.384918182 C20.9397158,0.384918182 21.5603474,2.2841 20.3190842,5.05546364 C19.0789789,7.82564545 4.46982105,36.1668273 4.46982105,36.1668273 C4.46982105,36.1668273 3.45087368,39.0161909 0.0570842105,38.9381909" id="Fill-69" fill="#FFFFFF"></path>
                        <path d="M20.9397158,0.384918182 C20.9397158,0.384918182 21.5603474,2.2841 20.3190842,5.05546364 C19.0789789,7.82564545 4.46982105,36.1668273 4.46982105,36.1668273 C4.46982105,36.1668273 3.45087368,39.0161909 0.0570842105,38.9381909" id="Stroke-71" stroke="#52BF3B" stroke-width="2" stroke-linecap="round"></path>
                    </g>
                    <path d="M226.462781,170.206851 C224.883232,173.874696 220.990167,175.859835 217.767985,174.64101 C214.54459,173.422184 213.212528,169.459866 214.792077,165.792021 C216.371625,162.125313 220.264691,160.140174 223.486872,161.358999 C226.710267,162.577825 228.042329,166.539006 226.462781,170.206851" id="Fill-167" fill="#52BF3B"></path>
                    <path d="M167.127429,235 C167.127429,235 196.300406,196.187951 199.891679,189.871334 C199.891679,189.871334 195.605923,173.673909 202.121951,172.326096 C208.636814,170.978283 212.372577,174.077425 213.697457,176.705601 C215.158669,179.60476 212.786238,180.985707 208.239467,178.37883 C203.661235,175.754204 203.73581,179.437911 203.73581,179.437911" id="Stroke-171" stroke="#000000" stroke-width="1.5" stroke-linecap="round"></path>
                </g>
                <g id="Group-25" transform="translate(1099.000000, 0.000000)">
                    <path d="M78.3299627,36.221781 L166.227999,2.05322399 C182.246602,-4.17424636 199.276597,4.3958941 204.918724,19.2418438 L88.9913703,59.4020715 C51.8642399,73.8353717 27.4024615,109.620336 27.4024615,149.499962 L27.4024615,149.501141 C27.4024615,191.677456 54.7170937,228.985686 94.8878175,241.672889 L196.587402,273.649688 C189.123828,280.129464 178.537775,282.909543 168.050623,279.596557 L85.3578967,253.478202 C37.4775211,238.355187 4.91872438,193.888078 4.91872438,143.613222 C4.91872438,96.0783583 34.0771737,53.4245488 78.3299627,36.221781" id="Fill-73" fill="#FFFFFF"></path>
                    <path d="M78.3299627,36.221781 L166.227999,2.05322399 C182.246602,-4.17424636 199.276597,4.3958941 204.918724,19.2418438 L88.9913703,59.4020715 C51.8642399,73.8353717 27.4024615,109.620336 27.4024615,149.499962 L27.4024615,149.501141 C27.4024615,191.677456 54.7170937,228.985686 94.8878175,241.672889 L196.587402,273.649688 C189.123828,280.129464 178.537775,282.909543 168.050623,279.596557 L85.3578967,253.478202 C37.4775211,238.355187 4.91872438,193.888078 4.91872438,143.613222 C4.91872438,96.0783583 34.0771737,53.4245488 78.3299627,36.221781 Z" id="Stroke-75" stroke="#D6D6D6" stroke-linecap="round"></path>
                    <path d="M27.9187244,149.0493 L27.9187244,149.0493 C27.9187244,109.232428 52.3176195,73.5048312 89.3493081,59.0958463 L204.978651,19 C206.222318,22.2747158 206.918724,25.8507714 206.918724,29.6457691 L206.918724,250.488977 C206.918724,259.652767 202.874164,267.607666 196.668746,273 L95.229423,241.073287 C55.1631395,228.406422 27.9187244,191.159178 27.9187244,149.0493" id="Fill-77" fill="#FFFFFF"></path>
                    <path d="M27.9187244,149.0493 L27.9187244,149.0493 C27.9187244,109.232428 52.3176195,73.5048312 89.3493081,59.0958463 L204.978651,19 C206.222318,22.2747158 206.918724,25.8507714 206.918724,29.6457691 L206.918724,250.488977 C206.918724,259.652767 202.874164,267.607666 196.668746,273 L95.229423,241.073287 C55.1631395,228.406422 27.9187244,191.159178 27.9187244,149.0493 Z" id="Stroke-79" stroke="#D6D6D6" stroke-linecap="round"></path>
                    <line x1="66.9187244" y1="41" x2="96.9187244" y2="56" id="Fill-81" fill="#FFFFFF"></line>
                    <line x1="66.9187244" y1="41" x2="96.9187244" y2="56" id="Stroke-83" stroke="#D6D6D6" stroke-linecap="round"></line>
                    <line x1="54.9187244" y1="48" x2="82.9187244" y2="62" id="Fill-85" fill="#FFFFFF"></line>
                    <line x1="54.9187244" y1="48" x2="82.9187244" y2="62" id="Stroke-87" stroke="#D6D6D6" stroke-linecap="round"></line>
                    <line x1="6.91872438" y1="121" x2="29.9187244" y2="125" id="Fill-89" fill="#FFFFFF"></line>
                    <line x1="6.91872438" y1="121" x2="29.9187244" y2="125" id="Stroke-91" stroke="#D6D6D6" stroke-linecap="round"></line>
                    <line x1="8.91872438" y1="174" x2="29.9187244" y2="172" id="Fill-93" fill="#FFFFFF"></line>
                    <line x1="8.91872438" y1="174" x2="29.9187244" y2="172" id="Stroke-95" stroke="#D6D6D6" stroke-linecap="round"></line>
                    <path d="M164.268096,132.347298 C164.268096,132.347298 159.456027,128.566072 158.16425,130.601931 C156.87363,132.638996 160.799844,141.200694 166.918724,145" id="Fill-97" fill="#FFFFFF"></path>
                    <path d="M164.268096,132.347298 C164.268096,132.347298 159.456027,128.566072 158.16425,130.601931 C156.87363,132.638996 160.799844,141.200694 166.918724,145" id="Stroke-99" stroke="#003741" stroke-width="2" stroke-linecap="round"></path>
                    <path d="M164.585873,138.202038 C162.139875,136.968374 162.593097,131.430439 166.110242,132.04786 C169.626218,132.664103 177.601994,135.11729 177.906868,146.288601 C178.21291,157.459912 172.492732,175.574851 172.492732,175.574851 L172.492732,234.716462 C172.492732,242.177357 171.629507,249.62529 169.754709,256.843458 C167.496774,265.541551 163.607007,274.990211 157.2654,276 L132.918724,260.522061 L135.918401,235.303247 C135.918401,235.303247 155.427981,175.890631 150.849035,173.575303 C139.965862,168.071538 142.828872,153.769527 142.828872,153.769527 C144.795949,143.35703 153.434037,131.93121 153.806661,138.299835 C153.977203,141.198414 148.836402,156.633935 153.971363,155.770253 C159.106323,154.907749 156.704713,148.416582 156.704713,148.416582 L164.585873,138.202038 Z" id="Fill-101" fill="#FFFFFF"></path>
                    <path d="M127.278244,262 L141.918724,214.799708 C141.918724,214.799708 133.086951,193.419753 125.290683,188.055417 C119.377368,183.987902 96.0708411,182.150544 96.0708411,182.150544 L69.9610434,178.04199 C69.9610434,178.04199 43.1589494,176.092069 29.1731529,198.767673 C21.5426133,211.141407 14.8817587,220.450142 13.0540494,224.618495 C12.6262126,225.592869 13.2585648,226.706775 14.3081753,226.895553 C27.966042,227.155855 38.341084,228.16306 48.5092599,243.126919" id="Fill-103" fill="#FFFFFF"></path>
                    <path d="M127.278244,262 L141.918724,214.799708 C141.918724,214.799708 133.086951,193.419753 125.290683,188.055417 C119.377368,183.987902 96.0708411,182.150544 96.0708411,182.150544 L69.9610434,178.04199 C69.9610434,178.04199 43.1589494,176.092069 29.1731529,198.767673 C21.5426133,211.141407 14.8817587,220.450142 13.0540494,224.618495 C12.6262126,225.592869 13.2585648,226.706775 14.3081753,226.895553 C27.966042,227.155855 38.341084,228.16306 48.5092599,243.126919" id="Stroke-105" stroke="#000000" stroke-width="1.5" stroke-linecap="round"></path>
                    <path d="M15.851445,227 C15.851445,227 -21.1407717,289.92926 21.3211932,288.98958 C42.2226093,288.52677 62.5690894,248.722774 84.9187244,252.339722 C84.9187244,252.339722 74.8409005,225.654922 39.8307652,247.701077" id="Fill-107" fill="#FFFFFF"></path>
                    <path d="M15.851445,227 C15.851445,227 -21.1407717,289.92926 21.3211932,288.98958 C42.2226093,288.52677 62.5690894,248.722774 84.9187244,252.339722 C84.9187244,252.339722 74.8409005,225.654922 39.8307652,247.701077" id="Stroke-109" stroke="#000000" stroke-width="1.5" stroke-linecap="round"></path>
                    <line x1="21.9187244" y1="259" x2="39.9187244" y2="248" id="Fill-111" fill="#FFFFFF"></line>
                    <line x1="21.9187244" y1="259" x2="39.9187244" y2="248" id="Stroke-113" stroke="#000000" stroke-width="1.5" stroke-linecap="round"></line>
                    <path d="M47.561273,132.153944 C47.561273,132.153944 40.6071934,118.288462 49.2610547,109.828088 C49.2610547,109.828088 55.8817517,92.965143 77.4776669,95.0507454 C77.4776669,95.0507454 74.7519118,84.4469668 85.2757679,85.3859598 C85.2757679,85.3859598 88.0825208,70.5803057 105.387896,75.0452408 C105.387896,75.0452408 121.056878,60.0048384 131.580734,81.8611973 C131.580734,81.8611973 142.104591,78.3364347 145.846928,87.266305 C149.588091,96.1973549 142.806572,102.071959 136.725861,104.187053 C136.725861,104.187053 143.975759,115.702692 129.709566,118.288462 C129.709566,118.288462 128.775155,131.683267 116.380131,128.393253 C116.380131,128.393253 119.18571,157.769813 90.8880998,162 L47.561273,132.153944 Z" id="Fill-115" fill="#000000"></path>
                    <path d="M47.561273,132.153944 C47.561273,132.153944 40.6071934,118.288462 49.2610547,109.828088 C49.2610547,109.828088 55.8817517,92.965143 77.4776669,95.0507454 C77.4776669,95.0507454 74.7519118,84.4469668 85.2757679,85.3859598 C85.2757679,85.3859598 88.0825208,70.5803057 105.387896,75.0452408 C105.387896,75.0452408 121.056878,60.0048384 131.580734,81.8611973 C131.580734,81.8611973 142.104591,78.3364347 145.846928,87.266305 C149.588091,96.1973549 142.806572,102.071959 136.725861,104.187053 C136.725861,104.187053 143.975759,115.702692 129.709566,118.288462 C129.709566,118.288462 128.775155,131.683267 116.380131,128.393253 C116.380131,128.393253 119.18571,157.769813 90.8880998,162 L47.561273,132.153944 Z" id="Stroke-117" stroke="#000000" stroke-width="1.5" stroke-linecap="round"></path>
                    <path d="M100.278601,201 C97.0198038,201 77.7639172,186.083057 74.2317863,179.36331 C74.1823035,179.270308 74.1316425,179.227927 74.0786252,179.249117 C71.8683925,180.150891 66.7905124,181.718989 60.3871997,180.471103 C43.9918915,177.27369 48.4806903,142.747284 48.4806903,138.037104 L48.4806903,129.558545 C48.6809779,121.779272 81.0934042,114 81.0934042,114 C81.3408183,116.72769 82.0536066,123.853588 90.4091344,129.230092 C92.3000851,130.446192 93.6443684,140.283298 91.1337043,146.113043 C90.7590487,146.983031 92.190516,147.594024 92.9115514,146.9795 C97.0256946,143.471293 99.364347,135.767364 99.364347,133.368128 C99.364347,130.641615 105.449556,128.529627 106.791483,138.532726 C107.969645,147.32208 100.588458,152.41722 100.091273,155.640533 L106.918724,183.403635 C106.918724,183.403635 105.202142,201 100.278601,201" id="Fill-119" fill="#FFFFFF"></path>
                    <path d="M100.278601,201 C97.0198038,201 77.7639172,186.083057 74.2317863,179.36331 C74.1823035,179.270308 74.1316425,179.227927 74.0786252,179.249117 C71.8683925,180.150891 66.7905124,181.718989 60.3871997,180.471103 C43.9918915,177.27369 48.4806903,142.747284 48.4806903,138.037104 L48.4806903,129.558545 C48.6809779,121.779272 81.0934042,114 81.0934042,114 C81.3408183,116.72769 82.0536066,123.853588 90.4091344,129.230092 C92.3000851,130.446192 93.6443684,140.283298 91.1337043,146.113043 C90.7590487,146.983031 92.190516,147.594024 92.9115514,146.9795 C97.0256946,143.471293 99.364347,135.767364 99.364347,133.368128 C99.364347,130.641615 105.449556,128.529627 106.791483,138.532726 C107.969645,147.32208 100.588458,152.41722 100.091273,155.640533 L106.918724,183.403635 C106.918724,183.403635 105.202142,201 100.278601,201 Z" id="Stroke-121" stroke="#000000" stroke-width="1.5" stroke-linecap="round"></path>
                    <path d="M96.9187244,158 C96.9187244,158 93.8743934,165.104796 91.1383644,167.918295 C88.4035444,170.731794 78.9187244,176 78.9187244,176" id="Fill-123" fill="#FFFFFF"></path>
                    <path d="M96.9187244,158 C96.9187244,158 93.8743934,165.104796 91.1383644,167.918295 C88.4035444,170.731794 78.9187244,176 78.9187244,176" id="Stroke-125" stroke="#000000" stroke-width="1.5" stroke-linecap="round"></path>
                    <path d="M57.9187244,142 C57.9187244,142 56.2800941,148.661644 54.8402442,151.576638 C51.6074477,158.123075 57.9187244,160 57.9187244,160" id="Fill-127" fill="#FFFFFF"></path>
                    <path d="M57.9187244,142 C57.9187244,142 56.2800941,148.661644 54.8402442,151.576638 C51.6074477,158.123075 57.9187244,160 57.9187244,160" id="Stroke-129" stroke="#000000" stroke-width="1.5" stroke-linecap="round"></path>
                    <line x1="61.9187244" y1="227" x2="55.9187244" y2="240" id="Fill-131" fill="#FFFFFF"></line>
                    <line x1="61.9187244" y1="227" x2="55.9187244" y2="240" id="Stroke-133" stroke="#000000" stroke-width="1.5" stroke-linecap="round"></line>
                    <path d="M124.918724,216 C124.918724,216 130.795152,224.001711 134.248604,230.323727 C135.466007,232.551044 136.9851,237.256326 136.916481,243.121 C136.849044,248.813428 134.898122,254.36212 131.431657,258.866646 C129.848677,260.922905 128.141472,262.319878 126.748971,266" id="Fill-135" fill="#FFFFFF"></path>
                    <path d="M124.918724,216 C124.918724,216 130.795152,224.001711 134.248604,230.323727 C135.466007,232.551044 136.9851,237.256326 136.916481,243.121 C136.849044,248.813428 134.898122,254.36212 131.431657,258.866646 C129.848677,260.922905 128.141472,262.319878 126.748971,266" id="Stroke-137" stroke="#000000" stroke-width="1.5" stroke-linecap="round"></path>
                    <path d="M157.68717,162.334473 C157.68717,162.334473 159.241876,153.623419 165.149524,153.007177 C171.055983,152.390934 170.890892,146.288601 170.890892,146.288601 C170.269722,142.347241 166.84913,139.435701 164.362075,138.202038 C161.87502,136.968374 162.337037,131.430439 165.912031,132.04786 C169.487024,132.664103 177.596678,135.11729 177.906669,146.288601 C178.217848,157.459912 172.401654,175.574851 172.401654,175.574851 L172.401654,234.716462 C172.401654,242.177357 171.523939,249.62529 169.617672,256.843458 C167.321837,265.541551 163.366778,274.990211 156.918724,276" id="Fill-139" fill="#FFFFFF"></path>
                    <path d="M157.68717,162.334473 C157.68717,162.334473 159.241876,153.623419 165.149524,153.007177 C171.055983,152.390934 170.890892,146.288601 170.890892,146.288601 C170.269722,142.347241 166.84913,139.435701 164.362075,138.202038 C161.87502,136.968374 162.337037,131.430439 165.912031,132.04786 C169.487024,132.664103 177.596678,135.11729 177.906669,146.288601 C178.217848,157.459912 172.401654,175.574851 172.401654,175.574851 L172.401654,234.716462 C172.401654,242.177357 171.523939,249.62529 169.617672,256.843458 C167.321837,265.541551 163.366778,274.990211 156.918724,276" id="Stroke-141" stroke="#000000" stroke-width="1.5" stroke-linecap="round"></path>
                    <path d="M153.918724,136.947252 C153.918724,136.947252 164.909936,114.148577 165.12209,111 C165.12209,111 176.001831,112.776747 179.459808,114.373143 C182.916586,115.969539 165.710605,150 165.710605,150 L158.763488,146.792082" id="Fill-143" fill="#FFFFFF"></path>
                    <path d="M153.918724,136.947252 C153.918724,136.947252 164.909936,114.148577 165.12209,111 C165.12209,111 176.001831,112.776747 179.459808,114.373143 C182.916586,115.969539 165.710605,150 165.710605,150 L158.763488,146.792082" id="Stroke-145" stroke="#52BF3B" stroke-width="2" stroke-linecap="round"></path>
                    <path d="M150.918724,137.68134 C150.918724,137.68134 158.076713,113.186876 157.79919,110 C157.79919,110 168.622605,110.153385 172.219826,111.236522 C175.817048,112.318479 164.357445,149 164.357445,149 L157.1289,146.824288" id="Fill-147" fill="#FFFFFF"></path>
                    <path d="M150.918724,137.68134 C150.918724,137.68134 158.076713,113.186876 157.79919,110 C157.79919,110 168.622605,110.153385 172.219826,111.236522 C175.817048,112.318479 164.357445,149 164.357445,149 L157.1289,146.824288" id="Stroke-149" stroke="#52BF3B" stroke-width="2" stroke-linecap="round"></path>
                    <path d="M148.918724,137.826617 C148.918724,137.826617 152.158942,112.275256 151.400296,109.140442 C151.400296,109.140442 161.987639,107.5909 165.664687,108.104238 C169.340574,108.618767 163.76517,147 163.76517,147 L156.377381,145.967369" id="Fill-151" fill="#FFFFFF"></path>
                    <path d="M148.918724,137.826617 C148.918724,137.826617 152.158942,112.275256 151.400296,109.140442 C151.400296,109.140442 161.987639,107.5909 165.664687,108.104238 C169.340574,108.618767 163.76517,147 163.76517,147 L156.377381,145.967369" id="Stroke-153" stroke="#52BF3B" stroke-width="2" stroke-linecap="round"></path>
                    <path d="M143.820916,142.054483 C143.820916,142.054483 143.03042,118.659629 141.940369,112.450882 C141.811988,111.712771 142.266077,111.008423 143.000703,110.800029 C145.965357,109.95481 152.941924,108.053651 155.891125,108 C159.1696,107.939558 159.805562,136.208971 159.91849,143.93003 C159.935132,145.00227 159.062616,145.875429 157.968998,145.895221 L152.314282,146" id="Fill-155" fill="#FFFFFF"></path>
                    <path d="M143.820916,142.054483 C143.820916,142.054483 143.03042,118.659629 141.940369,112.450882 C141.811988,111.712771 142.266077,111.008423 143.000703,110.800029 C145.965357,109.95481 152.941924,108.053651 155.891125,108 C159.1696,107.939558 159.805562,136.208971 159.91849,143.93003 C159.935132,145.00227 159.062616,145.875429 157.968998,145.895221 L152.314282,146" id="Stroke-157" stroke="#52BF3B" stroke-width="2" stroke-linecap="round"></path>
                    <path d="M156.366863,147.976389 C156.366863,147.976389 158.729401,154.478716 153.677981,155.34404 C148.626562,156.209364 153.683727,140.744498 153.517108,137.839229 C153.149398,131.459676 144.651843,142.907219 142.716768,153.33833 C142.716768,153.33833 139.900337,167.667531 150.606452,173.18294 C155.110902,175.50267 135.918724,234 135.918724,234" id="Fill-159" fill="#FFFFFF"></path>
                    <path d="M156.366863,147.976389 C156.366863,147.976389 158.729401,154.478716 153.677981,155.34404 C148.626562,156.209364 153.683727,140.744498 153.517108,137.839229 C153.149398,131.459676 144.651843,142.907219 142.716768,153.33833 C142.716768,153.33833 139.900337,167.667531 150.606452,173.18294 C155.110902,175.50267 135.918724,234 135.918724,234" id="Stroke-161" stroke="#000000" stroke-width="1.5" stroke-linecap="round"></path>
                    <path d="M131.918724,258 C131.918724,258 131.918724,263.249263 133.918724,266" id="Fill-163" fill="#FFFFFF"></path>
                    <path d="M131.918724,258 C131.918724,258 131.918724,263.249263 133.918724,266" id="Stroke-165" stroke="#000000" stroke-width="1.5" stroke-linecap="round"></path>
                    <path d="M156.796186,124.749549 C157.430881,129.424631 155.537278,133.551788 152.567606,133.966275 C149.597933,134.380761 146.676009,130.926704 146.041314,126.250441 C145.406619,121.575359 147.299058,117.448202 150.269895,117.033715 C153.239567,116.619229 156.161492,120.074467 156.796186,124.749549" id="Fill-169" fill="#52BF3B"></path>
                </g>
                <path d="M221.220764,378.836759 C214.810039,286.973853 233.648298,223.462168 277.735542,188.301706 C343.866408,135.561011 478.919306,139.551598 523.587114,168.787221 C550.481346,186.389822 548.073868,209.74921 536.691862,219.013297 C529.169842,225.135649 517.675246,223.263471 508.317534,216.078874 C484.800126,198.022844 518.725552,154.38915 620.840546,168.787221 C722.955541,183.185292 929.906381,265.82511 1019.39864,221.855663 C1063.23574,200.317563 1070.13509,168.702799 1062.82217,148.688714 C1059.19781,138.769526 1053.58882,130 1036.49373,130 C1019.39864,130 1016.71586,144.111186 1019.39864,159.308711 C1032.08508,231.175524 1305.22054,168.787221 1250.84952,421" id="Path-4" stroke="#52BF3B" stroke-width="2" stroke-linecap="round" stroke-linejoin="round" stroke-dasharray="10" transform="translate(739.000000, 275.500000) scale(1, -1) translate(-739.000000, -275.500000) "></path>
            </g>
        </g>
    </g>
</svg>